<svg xmlns="http://www.w3.org/2000/svg" width="922" height="168" viewBox="0 0 922 168">
  <defs>
    <style>
      .cls-1 {
        fill: #eb4255;
      }

      .cls-1, .cls-2 {
        fill-rule: evenodd;
      }

      .cls-2 {
        fill: #fff;
      }
    </style>
  </defs>
  <path id="Retângulo_Arredondado_3" data-name="Retângulo Arredondado 3" class="cls-1" d="M20,0H356a20,20,0,0,1,20,20v92a20,20,0,0,1-20,20H337.006L311,168l-25.46-36H20A20,20,0,0,1,0,112V20A20,20,0,0,1,20,0Z"/>
  <path id="Forma_1" data-name="Forma 1" class="cls-2" d="M343,32v73h11V52l22,26V60L352,32h-9Z"/>
  <path id="Forma_1_copiar" data-name="Forma 1 copiar" class="cls-1" d="M407,105V32H396V85L376,60V78l22,27h9Z"/>
  <path id="WHO" class="cls-2" d="M142.388,30.527L120.85,94.089,99.207,30.527H91.958L70,93.774,48.778,30.527H40.793L65.588,104.07h8.09L95.32,41.348l21.538,62.722h8.195l24.794-73.543h-7.459Zm77.009,0V63.306H173.38V30.527h-7.775V104.07h7.775V70.135H219.4V104.07h7.67V30.527H219.4ZM283.168,104.7a40.135,40.135,0,0,0,19.7-4.833,35.755,35.755,0,0,0,13.816-13.4A37.066,37.066,0,0,0,321.726,67.3a37.075,37.075,0,0,0-5.043-19.174,35.778,35.778,0,0,0-13.816-13.4,42.573,42.573,0,0,0-39.5.053,35.672,35.672,0,0,0-13.868,13.4,37.091,37.091,0,0,0-4.99,19.121A37.088,37.088,0,0,0,249.5,86.42a35.673,35.673,0,0,0,13.868,13.4,40.384,40.384,0,0,0,19.8,4.886h0Zm0-6.934a32,32,0,0,1-15.811-3.94A28.767,28.767,0,0,1,256.22,82.9a30.563,30.563,0,0,1-4.045-15.6,30.571,30.571,0,0,1,4.045-15.6A28.779,28.779,0,0,1,267.357,40.77a33.594,33.594,0,0,1,31.571,0A28.539,28.539,0,0,1,309.959,51.7a30.9,30.9,0,0,1,3.992,15.6,30.886,30.886,0,0,1-3.992,15.6,28.527,28.527,0,0,1-11.031,10.926,31.714,31.714,0,0,1-15.76,3.94h0Z"/>
  <path id="FOLLOW" class="cls-2" d="M489.534,46.443V30.369H431.855v73.543h20.8V78.7h32.464V62.623H452.657V46.443h36.877Zm46.857,58.94a43.975,43.975,0,0,0,20.96-4.938,36.811,36.811,0,0,0,19.909-33.3,36.81,36.81,0,0,0-19.909-33.3,46.954,46.954,0,0,0-41.92,0,36.815,36.815,0,0,0-19.909,33.3,36.816,36.816,0,0,0,19.909,33.3,43.978,43.978,0,0,0,20.96,4.938h0Zm0-17.23A19.689,19.689,0,0,1,526.3,85.526a18.869,18.869,0,0,1-7.144-7.407,22.411,22.411,0,0,1-2.627-10.979,22.42,22.42,0,0,1,2.627-10.979,18.891,18.891,0,0,1,7.144-7.407,20.679,20.679,0,0,1,20.172,0,18.9,18.9,0,0,1,7.144,7.407,22.442,22.442,0,0,1,2.627,10.979,22.433,22.433,0,0,1-2.627,10.979,18.883,18.883,0,0,1-7.144,7.407,19.694,19.694,0,0,1-10.086,2.627h0Zm51.8,15.759h55.893V87.417H608.988V30.369h-20.8v73.543Zm64.086,0h55.893V87.417H673.074V30.369h-20.8v73.543Zm101.173,1.471a43.975,43.975,0,0,0,20.96-4.938,36.811,36.811,0,0,0,19.909-33.3,36.81,36.81,0,0,0-19.909-33.3,46.954,46.954,0,0,0-41.92,0,36.815,36.815,0,0,0-19.909,33.3,36.816,36.816,0,0,0,19.909,33.3,43.978,43.978,0,0,0,20.96,4.938h0Zm0-17.23a19.689,19.689,0,0,1-10.086-2.627,18.869,18.869,0,0,1-7.144-7.407,22.411,22.411,0,0,1-2.627-10.979,22.42,22.42,0,0,1,2.627-10.979,18.891,18.891,0,0,1,7.144-7.407,20.679,20.679,0,0,1,20.172,0,18.9,18.9,0,0,1,7.144,7.407A22.442,22.442,0,0,1,773.3,67.14a22.433,22.433,0,0,1-2.627,10.979,18.883,18.883,0,0,1-7.144,7.407,19.694,19.694,0,0,1-10.086,2.627h0Zm147.3-57.784L885.3,77.752,870.483,30.369H851.362L835.813,77.331,821,30.369H799.566l23.849,73.543h22.274L860.4,59.156l14.079,44.757h22.273L920.6,30.369H900.741Z"/>
</svg>
