<svg xmlns="http://www.w3.org/2000/svg" width="407" height="360" viewBox="0 0 407 360">
  <defs>
    <style>
      .cls-1 {
        fill: #eb4255;
        fill-rule: evenodd;
      }
    </style>
  </defs>
  <path id="HASHTAG" class="cls-1" d="M1186.98,1727.13L1265,1727l13-53-78.57-.02L1219,1596h-52l-18.45,77.96-98.82-.02L1069,1596h-52l-19.3,78.08L921,1674l-13,53,76.381-.06-23.88,97.02L884,1824l-13,55,75.984-.13L928,1956h52l18.911-76.49,98.449-.22L1078,1956h52l18.93-76.83L1228,1879l12-55-76.92.07Zm-52.63.09c-51.16.09-97.83,0.17-97.83,0.17l-23.93,96.8,98.11-.08S1136.21,1727.22,1134.35,1727.22Z" transform="translate(-871 -1596)"/>
</svg>
